<?xml version="1.0" encoding="UTF-8" standalone="no"?>
<svg width="365px" height="50px" viewBox="0 0 365 50" version="1.1" xmlns="http://www.w3.org/2000/svg" xmlns:xlink="http://www.w3.org/1999/xlink" xmlns:sketch="http://www.bohemiancoding.com/sketch/ns">
    <!-- Generator: Sketch 3.3.3 (12081) - http://www.bohemiancoding.com/sketch -->
    <title>logo--stanford</title>
    <desc>Created with Sketch.</desc>
    <defs></defs>
    <g id="Page-1" stroke="none" stroke-width="1" fill="none" fill-rule="evenodd" sketch:type="MSPage">
        <g id="logo--stanford" sketch:type="MSLayerGroup">
            <g id="Page-1" sketch:type="MSShapeGroup">
                <g id="Stanford-Logo">
                    <path d="M209.060235,16.6245882 L209.060235,18.4651765 L199,18.4651765 L199,1.45270588 L208.803294,1.45270588 L208.803294,3.26858824 L201.151882,3.26858824 L201.151882,8.61 L207.607529,8.61 L207.607529,10.4530588 L201.151882,10.4530588 L201.151882,16.6245882 L209.060235,16.6245882 L209.060235,16.6245882 Z M220.160588,18.4651765 L220.160588,10.7643529 C220.160588,8.40247059 219.436706,7.392 217.776471,7.392 C216.476941,7.392 215.597412,8.06647059 214.325059,9.33635294 L214.325059,18.4651765 L212.197882,18.4651765 L212.197882,5.86023529 L213.961882,5.86023529 L214.144706,7.67611765 L214.221294,7.67611765 C215.414588,6.48282353 216.711647,5.55141176 218.448471,5.55141176 C221.094471,5.55141176 222.287765,7.26105882 222.287765,10.4777647 L222.287765,18.4651765 L220.160588,18.4651765 L220.160588,18.4651765 Z M231.367176,18.4651765 L228.879294,18.4651765 L224.340824,5.86023529 L226.544588,5.86023529 L228.931176,13.02 C229.294353,14.2651765 229.706941,15.5350588 230.099765,16.7283529 L230.201059,16.7283529 C230.564235,15.5350588 230.979294,14.2651765 231.344941,13.02 L233.729059,5.86023529 L235.829059,5.86023529 L231.367176,18.4651765 L231.367176,18.4651765 Z M239.497882,3.26858824 C238.667765,3.26858824 238.018,2.69788235 238.018,1.89247059 C238.018,1.06235294 238.667765,0.518823529 239.497882,0.518823529 C240.325529,0.518823529 240.975294,1.06235294 240.975294,1.89247059 C240.975294,2.69788235 240.325529,3.26858824 239.497882,3.26858824 L239.497882,3.26858824 Z M238.408353,5.86023529 L240.535529,5.86023529 L240.535529,18.4651765 L238.408353,18.4651765 L238.408353,5.86023529 Z M251.161529,7.67611765 C250.746471,7.54764706 250.462353,7.46858824 249.943529,7.46858824 C248.878706,7.46858824 247.611294,8.24682353 246.754,10.374 L246.754,18.4651765 L244.629294,18.4651765 L244.629294,5.86023529 L246.390824,5.86023529 L246.573647,8.14305882 L246.650235,8.14305882 C247.507529,6.56188235 248.802118,5.55141176 250.230118,5.55141176 C250.773647,5.55141176 251.161529,5.628 251.576588,5.80835294 L251.161529,7.67611765 L251.161529,7.67611765 Z M258.563412,18.7764706 C255.477647,18.7764706 252.730353,16.3676471 252.730353,12.1898824 C252.730353,7.96270588 255.477647,5.55141176 258.563412,5.55141176 C261.651647,5.55141176 264.398941,7.96270588 264.398941,12.1898824 C264.398941,16.3676471 261.651647,18.7764706 258.563412,18.7764706 L258.563412,18.7764706 Z M258.563412,7.31294118 C256.411529,7.31294118 254.931647,9.28447059 254.931647,12.1898824 C254.931647,15.0681176 256.411529,17.0149412 258.563412,17.0149412 C260.742471,17.0149412 262.195176,15.0681176 262.195176,12.1898824 C262.195176,9.28447059 260.742471,7.31294118 258.563412,7.31294118 L258.563412,7.31294118 Z M275.721647,18.4651765 L275.721647,10.7643529 C275.721647,8.40247059 274.995294,7.392 273.335059,7.392 C272.035529,7.392 271.156,8.06647059 269.883647,9.33635294 L269.883647,18.4651765 L267.756471,18.4651765 L267.756471,5.86023529 L269.522941,5.86023529 L269.703294,7.67611765 L269.779882,7.67611765 C270.975647,6.48282353 272.270235,5.55141176 274.007059,5.55141176 C276.655529,5.55141176 277.846353,7.26105882 277.846353,10.4777647 L277.846353,18.4651765 L275.721647,18.4651765 L275.721647,18.4651765 Z M297.151529,18.4651765 L297.151529,10.7643529 C297.151529,8.40247059 296.400471,7.392 294.819294,7.392 C293.833529,7.392 292.823059,8.03929412 291.654471,9.33635294 L291.654471,18.4651765 L289.529765,18.4651765 L289.529765,10.7643529 C289.529765,8.40247059 288.776235,7.392 287.167882,7.392 C286.234,7.392 285.171647,8.03929412 284.003059,9.33635294 L284.003059,18.4651765 L281.875882,18.4651765 L281.875882,5.86023529 L283.642353,5.86023529 L283.822706,7.67611765 L283.899294,7.67611765 C284.988824,6.48282353 286.313059,5.55141176 287.815176,5.55141176 C289.734824,5.55141176 290.772471,6.45811765 291.293765,7.96270588 C292.613059,6.53717647 293.910118,5.55141176 295.441882,5.55141176 C298.036,5.55141176 299.281176,7.26105882 299.281176,10.4777647 L299.281176,18.4651765 L297.151529,18.4651765 L297.151529,18.4651765 Z M313.151059,12.6321176 L304.644824,12.6321176 C304.800471,15.3547059 306.433529,17.0668235 308.847294,17.0668235 C310.038118,17.0668235 311.048588,16.6764706 311.984941,16.0810588 L312.736,17.4794118 C311.648941,18.1810588 310.3,18.7764706 308.585412,18.7764706 C305.215529,18.7764706 302.542353,16.3132941 302.542353,12.1898824 C302.542353,8.06647059 305.319294,5.55141176 308.197529,5.55141176 C311.414235,5.55141176 313.230118,7.85894118 313.230118,11.4635294 C313.230118,11.9057647 313.202941,12.3208235 313.151059,12.6321176 L313.151059,12.6321176 Z M308.251882,7.23635294 C306.485412,7.23635294 304.877059,8.68905882 304.617647,11.2288235 L311.362353,11.2288235 C311.362353,8.66188235 310.218471,7.23635294 308.251882,7.23635294 L308.251882,7.23635294 Z M324.441647,18.4651765 L324.441647,10.7643529 C324.441647,8.40247059 323.715294,7.392 322.055059,7.392 C320.758,7.392 319.878471,8.06647059 318.606118,9.33635294 L318.606118,18.4651765 L316.478941,18.4651765 L316.478941,5.86023529 L318.245412,5.86023529 L318.425765,7.67611765 L318.502353,7.67611765 C319.698118,6.48282353 320.992706,5.55141176 322.729529,5.55141176 C325.375529,5.55141176 326.568824,7.26105882 326.568824,10.4777647 L326.568824,18.4651765 L324.441647,18.4651765 L324.441647,18.4651765 Z M333.068941,14.6036471 C333.068941,16.1576471 333.560588,17.0396471 335.010824,17.0396471 C335.453059,17.0396471 336.026235,16.8592941 336.441294,16.7036471 L336.856353,18.3095294 C336.154706,18.5442353 335.299882,18.7764706 334.521647,18.7764706 C331.823765,18.7764706 330.917059,17.0668235 330.917059,14.5764706 L330.917059,7.59952941 L329.046824,7.59952941 L329.046824,5.99117647 L331.018353,5.86023529 L331.277765,2.33470588 L333.068941,2.33470588 L333.068941,5.86023529 L336.463529,5.86023529 L336.463529,7.59952941 L333.068941,7.59952941 L333.068941,14.6036471 L333.068941,14.6036471 Z M346.966,18.4651765 L346.785647,16.9630588 L346.733765,16.9630588 C345.513294,17.9463529 344.112471,18.7764706 342.556,18.7764706 C340.428824,18.7764706 338.847647,17.4547059 338.847647,15.1990588 C338.847647,12.4492941 341.231765,11.0756471 346.602824,10.4777647 C346.602824,8.86941176 346.056824,7.31294118 344.008706,7.31294118 C342.528824,7.31294118 341.231765,7.98741176 340.248471,8.66188235 L339.391176,7.18447059 C340.559765,6.43094118 342.321294,5.55141176 344.344706,5.55141176 C347.432941,5.55141176 348.73,7.59952941 348.73,10.7371765 L348.73,18.4651765 L346.966,18.4651765 L346.966,18.4651765 Z M346.602824,11.8785882 C342.375647,12.3974118 340.947647,13.4350588 340.947647,15.0434118 C340.947647,16.4689412 341.908706,17.0668235 343.151412,17.0668235 C344.371882,17.0668235 345.382353,16.4689412 346.602824,15.3794118 L346.602824,11.8785882 L346.602824,11.8785882 Z M354.938588,18.7764706 C353.330235,18.7764706 352.682941,17.766 352.682941,15.9254118 L352.682941,0 L354.807647,0 L354.807647,16.0810588 C354.807647,16.7555294 355.094235,17.0149412 355.405529,17.0149412 C355.534,17.0149412 355.637765,17.0149412 355.872471,16.9630588 L356.156588,18.5714118 C355.872471,18.6998824 355.506824,18.7764706 354.938588,18.7764706 L354.938588,18.7764706 Z M209.060235,44.4063529 L209.060235,36.3942353 L201.151882,36.3942353 L201.151882,44.4063529 L199,44.4063529 L199,27.3938824 L201.151882,27.3938824 L201.151882,34.5264706 L209.060235,34.5264706 L209.060235,27.3938824 L211.241765,27.3938824 L211.241765,44.4063529 L209.060235,44.4063529 L209.060235,44.4063529 Z M225.437765,38.5732941 L216.931529,38.5732941 C217.087176,41.2958824 218.720235,43.008 221.134,43.008 C222.324824,43.008 223.340235,42.6201176 224.271647,42.0222353 L225.022706,43.4205882 C223.933176,44.1222353 222.586706,44.7176471 220.872118,44.7176471 C217.502235,44.7176471 214.831529,42.2544706 214.831529,38.1310588 C214.831529,34.0076471 217.606,31.4925882 220.484235,31.4925882 C223.700941,31.4925882 225.514353,33.8001176 225.514353,37.4047059 C225.514353,37.8469412 225.492118,38.262 225.437765,38.5732941 L225.437765,38.5732941 Z M220.536118,33.1775294 C218.774588,33.1775294 217.163765,34.6302353 216.906824,37.17 L223.649059,37.17 C223.649059,34.6030588 222.510118,33.1775294 220.536118,33.1775294 L220.536118,33.1775294 Z M235.925412,44.4063529 L235.745059,42.9017647 L235.690706,42.9017647 C234.475176,43.89 233.074353,44.7176471 231.517882,44.7176471 C229.388235,44.7176471 227.807059,43.3958824 227.807059,41.1402353 C227.807059,38.3904706 230.196118,37.0168235 235.564706,36.4189412 C235.564706,34.8105882 235.018706,33.2541176 232.970588,33.2541176 C231.490706,33.2541176 230.196118,33.9310588 229.207882,34.6030588 L228.353059,33.1256471 C229.519176,32.3721176 231.283176,31.4925882 233.306588,31.4925882 C236.394824,31.4925882 237.689412,33.5407059 237.689412,36.6783529 L237.689412,44.4063529 L235.925412,44.4063529 L235.925412,44.4063529 Z M235.564706,37.8197647 C231.335059,38.3385882 229.909529,39.3762353 229.909529,40.9845882 C229.909529,42.4101176 230.868118,43.008 232.113294,43.008 C233.333765,43.008 234.346706,42.4101176 235.564706,41.3205882 L235.564706,37.8197647 L235.564706,37.8197647 Z M243.900471,44.7176471 C242.289647,44.7176471 241.642353,43.7071765 241.642353,41.8665882 L241.642353,25.9411765 L243.769529,25.9411765 L243.769529,42.0222353 C243.769529,42.6967059 244.053647,42.9561176 244.364941,42.9561176 C244.495882,42.9561176 244.599647,42.9561176 244.834353,42.9017647 L245.118471,44.5101176 C244.834353,44.6410588 244.468706,44.7176471 243.900471,44.7176471 L243.900471,44.7176471 Z M250.618,40.5448235 C250.618,42.0988235 251.109647,42.9808235 252.562353,42.9808235 C253.002118,42.9808235 253.575294,42.8004706 253.990353,42.6448235 L254.405412,44.2531765 C253.703765,44.4854118 252.848941,44.7176471 252.068235,44.7176471 C249.372824,44.7176471 248.466118,43.008 248.466118,40.5176471 L248.466118,33.5407059 L246.595882,33.5407059 L246.595882,31.9323529 L248.567412,31.8038824 L248.826824,28.2758824 L250.618,28.2758824 L250.618,31.8038824 L254.012588,31.8038824 L254.012588,33.5407059 L250.618,33.5407059 L250.618,40.5448235 L250.618,40.5448235 Z M264.942471,44.4063529 L264.942471,36.7055294 C264.942471,34.3436471 264.216118,33.3331765 262.555882,33.3331765 C261.258824,33.3331765 260.379294,34.0076471 259.106941,35.2775294 L259.106941,44.4063529 L256.982235,44.4063529 L256.982235,25.9411765 L259.106941,25.9411765 L259.106941,30.9737647 L259.030353,33.5654118 C260.221176,32.424 261.493529,31.4925882 263.230353,31.4925882 C265.876353,31.4925882 267.069647,33.2022353 267.069647,36.4189412 L267.069647,44.4063529 L264.942471,44.4063529 L264.942471,44.4063529 Z M289.611294,42.9561176 L289.040588,44.7176471 C287.849765,44.3816471 286.498353,43.7318824 285.124706,42.7732941 C283.827647,43.9418824 282.221765,44.7176471 280.223059,44.7176471 C277.137294,44.7176471 275.034824,42.7461176 275.034824,39.9988235 C275.034824,37.716 276.645647,36.2904706 278.382471,35.0971765 C277.680824,33.6963529 277.268235,32.3474118 277.268235,31.1022353 C277.268235,28.8441176 278.846941,27.0825882 281.208824,27.0825882 C283.308824,27.0825882 284.554,28.4562353 284.554,30.4524706 C284.554,32.6834118 282.609647,34.1114118 280.714706,35.4850588 C281.831412,37.2243529 283.412588,38.9092941 285.020941,40.2582353 C286.058588,38.8574118 286.888706,37.17 287.407529,35.2256471 L289.403765,35.2256471 C288.729294,37.4565882 287.770706,39.5318824 286.421765,41.3205882 C287.587882,42.126 288.679882,42.6967059 289.611294,42.9561176 L289.611294,42.9561176 Z M282.814706,30.4796471 C282.814706,29.4938824 282.347765,28.6118824 281.208824,28.6118824 C279.938941,28.6118824 279.108824,29.6767059 279.108824,31.0750588 C279.108824,32.0114118 279.420118,33.0218824 279.911765,34.0570588 C281.468235,33.0218824 282.814706,31.9842353 282.814706,30.4796471 L282.814706,30.4796471 Z M279.237294,36.5745882 C278.044,37.5356471 277.110118,38.5461176 277.110118,39.8678824 C277.110118,41.7628235 278.59,43.008 280.457765,43.008 C281.623882,43.008 282.713412,42.4891765 283.699176,41.6318824 C282.038941,40.1791765 280.430588,38.3904706 279.237294,36.5745882 L279.237294,36.5745882 Z M302.505294,28.9750588 C300.612824,28.9750588 299.342941,29.9361176 299.342941,31.4654118 C299.342941,33.0984706 300.820353,33.7210588 302.169294,34.2917647 L304.580588,35.3294118 C306.552118,36.1867059 308.081412,37.3528235 308.081412,39.8678824 C308.081412,42.5657647 305.877647,44.7176471 302.297765,44.7176471 C299.913647,44.7176471 297.811176,43.7318824 296.331294,42.2025882 L297.630824,40.698 C298.848824,41.9703529 300.560941,42.8251765 302.324941,42.8251765 C304.553412,42.8251765 305.877647,41.7109412 305.877647,40.0507059 C305.877647,38.3114118 304.659647,37.7678824 303.051294,37.0415294 L300.612824,35.9791765 C299.004471,35.3022353 297.161412,34.0842353 297.161412,31.5938824 C297.161412,28.9997647 299.422,27.0825882 302.505294,27.0825882 C304.531176,27.0825882 306.317412,27.9374118 307.535412,29.1825882 L306.371765,30.5834118 C305.334118,29.5976471 304.088941,28.9750588 302.505294,28.9750588 L302.505294,28.9750588 Z M318.870471,44.4063529 L318.690118,42.9017647 L318.640706,42.9017647 C317.420235,43.89 316.019412,44.7176471 314.465412,44.7176471 C312.335765,44.7176471 310.754588,43.3958824 310.754588,41.1402353 C310.754588,38.3904706 313.138706,37.0168235 318.509765,36.4189412 C318.509765,34.8105882 317.963765,33.2541176 315.915647,33.2541176 C314.435765,33.2541176 313.138706,33.9310588 312.152941,34.6030588 L311.298118,33.1256471 C312.464235,32.3721176 314.228235,31.4925882 316.251647,31.4925882 C319.339882,31.4925882 320.634471,33.5407059 320.634471,36.6783529 L320.634471,44.4063529 L318.870471,44.4063529 L318.870471,44.4063529 Z M318.509765,37.8197647 C314.282588,38.3385882 312.854588,39.3762353 312.854588,40.9845882 C312.854588,42.4101176 313.813176,43.008 315.058353,43.008 C316.278824,43.008 317.289294,42.4101176 318.509765,41.3205882 L318.509765,37.8197647 L318.509765,37.8197647 Z M330.180824,27.6804706 C329.713882,27.4704706 329.222235,27.3667059 328.755294,27.3667059 C327.562,27.3667059 326.993765,28.1992941 326.993765,29.8051765 L326.993765,31.8038824 L329.662,31.8038824 L329.662,33.5407059 L326.993765,33.5407059 L326.993765,44.4063529 L324.864118,44.4063529 L324.864118,33.5407059 L323.152,33.5407059 L323.152,31.9323529 L324.864118,31.8038824 L324.864118,29.8051765 C324.864118,27.2382353 326.032706,25.6298824 328.547765,25.6298824 C329.326,25.6298824 330.079529,25.8127059 330.647765,26.0449412 L330.180824,27.6804706 L330.180824,27.6804706 Z M341.708588,38.5732941 L333.202353,38.5732941 C333.360471,41.2958824 334.993529,43.008 337.404824,43.008 C338.598118,43.008 339.611059,42.6201176 340.542471,42.0222353 L341.296,43.4205882 C340.206471,44.1222353 338.857529,44.7176471 337.145412,44.7176471 C333.775529,44.7176471 331.104824,42.2544706 331.104824,38.1310588 C331.104824,34.0076471 333.876824,31.4925882 336.757529,31.4925882 C339.974235,31.4925882 341.787647,33.8001176 341.787647,37.4047059 C341.787647,37.8469412 341.762941,38.262 341.708588,38.5732941 L341.708588,38.5732941 Z M336.806941,33.1775294 C335.045412,33.1775294 333.437059,34.6302353 333.177647,37.17 L339.919882,37.17 C339.919882,34.6030588 338.780941,33.1775294 336.806941,33.1775294 L336.806941,33.1775294 Z M347.568824,40.5448235 C347.568824,42.0988235 348.060471,42.9808235 349.513176,42.9808235 C349.955412,42.9808235 350.526118,42.8004706 350.941176,42.6448235 L351.356235,44.2531765 C350.657059,44.4854118 349.799765,44.7176471 349.021529,44.7176471 C346.323647,44.7176471 345.416941,43.008 345.416941,40.5176471 L345.416941,33.5407059 L343.549176,33.5407059 L343.549176,31.9323529 L345.520706,31.8038824 L345.777647,28.2758824 L347.568824,28.2758824 L347.568824,31.8038824 L350.965882,31.8038824 L350.965882,33.5407059 L347.568824,33.5407059 L347.568824,40.5448235 L347.568824,40.5448235 Z M359.553647,45.4464706 C358.671647,47.9343529 357.374588,49.8292941 354.834824,49.8292941 C354.264118,49.8292941 353.772471,49.7230588 353.354941,49.5698824 L353.772471,47.8824706 C354.029412,47.9590588 354.419765,48.0652941 354.728588,48.0652941 C356.156588,48.0652941 357.063294,46.9238824 357.582118,45.3674118 L357.868706,44.4335294 L352.811412,31.8038824 L355.015176,31.8038824 L357.582118,38.7808235 C357.972471,39.8678824 358.412235,41.1674118 358.800118,42.3335294 L358.903882,42.3335294 C359.269529,41.1921176 359.632706,39.8950588 359.968706,38.7808235 L362.226824,31.8038824 L364.299647,31.8038824 L359.553647,45.4464706 L359.553647,45.4464706 Z" id="Fill-1" fill="#000000"></path>
                    <path d="M187,0 L188,0 L188,45 L187,45 L187,0 L187,0 Z" id="Fill-2" fill="#000000"></path>
                    <path d="M37.5965703,41.2793393 C36.8926997,42.1320101 35.0774544,43.9236046 31.293841,43.9236046 C27.6979266,43.9236046 25.6925127,42.6470627 24.8132918,39.7736113 C24.4527125,38.6326096 24.4527125,36.3949647 24.4527125,35.0444918 C24.4527125,31.3306914 24.4897583,28.3512721 24.5292739,24.9060877 L24.5416225,23.2869988 L21.4717587,23.2869988 L21.4717587,22.3801119 C22.718968,21.8995604 23.5660825,21.3968296 24.38603,20.7733449 C26.1889267,19.3785134 27.3398169,17.6362062 28.7203912,15.1890902 L29.7428559,15.1890902 L29.7428559,20.4036899 L37.6459647,20.4036899 L37.6459647,23.2869988 L29.7428559,23.2869988 L29.7428559,35.4806847 C29.7428559,39.1279472 30.407211,41.2029439 33.857412,41.2029439 C35.4701401,41.2029439 36.5321203,40.6780338 37.2014149,40.3280938 L37.5965703,41.2793393 L37.5965703,41.2793393 Z M164.856379,40.618889 C166.44441,40.618889 167.521209,40.3675236 168.679508,39.6799654 L168.679508,24.1248834 C168.296701,23.7576928 166.88896,22.5698681 164.033962,22.5698681 C159.504493,22.5698681 157.306441,25.6651126 157.306441,32.0330358 C157.306441,34.7044092 158.106631,40.618889 164.856379,40.618889 L164.856379,40.618889 L164.856379,40.618889 Z M165.666448,8.3480085 C167.06925,8.3480085 168.904253,8.08925 171.134411,7.69988011 C172.403848,7.48055149 173.255902,7.24890103 173.663406,7.08625283 L174.07091,7.32036766 C173.868393,9.2351805 173.865923,13.5552151 173.865923,16.6134941 L173.865923,35.549687 C173.865923,38.3763154 173.915318,40.1260157 174.320352,40.6952844 C174.680932,41.2201945 175.540395,41.5725989 177,41.5775276 L177,42.8195684 C175.530516,42.8195684 173.791832,43.0093246 171.998814,43.3001199 C170.803469,43.4948048 169.862505,43.6894898 169.415485,43.9334621 L168.780767,43.7190622 L168.780767,41.7623551 C167.627407,42.6174903 165.330566,43.9457839 162.28293,43.9457839 C155.89623,43.9457839 151.771795,39.5247103 151.771795,32.6786999 C151.771795,30.3942321 152.213875,28.2379113 153.021474,26.4167444 C154.982433,22.2051419 159.030306,19.792527 164.14016,19.792527 C166.00727,19.792527 167.679271,20.0241774 168.679508,20.2336486 L168.679508,15.2975223 C168.679508,12.4018916 168.635053,10.8591981 168.212731,10.2381777 C167.891667,9.7625549 167.410071,9.5284401 165.666448,9.4052218 L165.666448,8.3480085 L165.666448,8.3480085 Z M132.920411,21.1651792 C134.503502,21.2538964 136.215019,21.0641401 138.008037,20.7487012 C139.393551,20.5047289 140.275241,20.2065406 140.771655,19.9748901 L141.193978,20.1794325 L141.193978,22.1952844 C142.312762,21.1479286 144.071203,20.041428 146.565622,20.041428 C148.393216,20.041428 149.603379,20.5515519 150.620905,21.4756894 L150.620905,22.2076062 L148.667355,25.7932596 L147.711573,25.7932596 C147.091673,24.7089383 145.928434,23.6960837 143.83658,23.6960837 C142.851161,23.6960837 142.028744,23.9351272 141.290297,24.4304649 L141.290297,36.1386706 C141.290297,39.1944851 141.391556,40.6410683 141.79165,41.2448382 C142.436248,42.2256561 144.37004,42.3266951 145.478945,42.2897296 L145.478945,43.5761289 C143.878565,43.4874117 141.124826,43.3494072 139.144109,43.3494072 C136.894193,43.3494072 134.673913,43.3913015 132.819152,43.6007726 L132.819152,42.4252697 C134.118226,42.3611962 134.846794,42.0038631 135.350617,41.4395231 C136.071775,40.6287465 136.106352,38.7262555 136.106352,34.7734115 L136.106352,28.1393366 C136.106352,25.2658852 136.086594,24.0263088 135.646983,23.4250033 C135.264176,22.9025576 134.422001,22.5969762 132.920411,22.5772612 L132.920411,21.1651792 L132.920411,21.1651792 Z M119.043046,22.4293992 C117.657532,22.4293992 116.558506,22.784268 115.736089,23.4816838 C113.873919,25.0514853 112.923076,27.8830425 112.923076,31.9369255 C112.923076,33.5017983 113.219442,41.3089117 118.946727,41.3089117 C120.310013,41.3089117 121.426327,40.9565073 122.228986,40.2590915 C124.108444,38.6966831 125.051878,35.8454109 125.051878,31.7890635 C125.051878,30.238977 124.757981,22.4293992 119.043046,22.4293992 L119.043046,22.4293992 L119.043046,22.4293992 Z M118.749149,44 C111.64376,44 107.398309,39.5739976 107.398309,32.1907553 C107.398309,26.4389237 110.500279,19.7481684 119.238154,19.7481684 C126.341073,19.7481684 130.574175,24.1519915 130.574175,31.55002 C130.574175,37.2821367 127.474675,44 118.749149,44 L118.749149,44 L118.749149,44 Z M91.9724284,42.4745571 C92.9232712,42.4893433 93.935857,42.1270814 94.5014232,41.4888104 C95.2225819,40.6878913 95.2620974,38.7262555 95.2620974,34.7734115 L95.2620974,23.2574264 L92.2268097,23.2574264 L92.2268097,21.9513121 C93.5061255,21.4584388 94.627379,20.8793126 95.2620974,20.383975 C95.2670369,18.3385507 95.3312497,15.6745704 95.6152676,14.2279872 C96.5093068,9.4446517 99.6705503,7 104.935997,7 C107.260004,7 109.475345,7.79106168 110.804055,8.929599 L110.880616,9.420008 L108.568957,12.6138271 L108.00586,12.6236846 C107.218019,10.6965499 106.037492,9.5925137 103.953047,9.5925137 C103.231889,9.5925137 102.226712,9.816771 101.606812,10.4254696 C100.611514,11.4284668 100.433694,12.9218729 100.433694,15.8889703 L100.433694,20.3741175 L105.627519,20.3741175 L105.627519,23.2574264 L100.433694,23.2574264 L100.433694,36.1386706 C100.433694,39.1944851 100.544832,40.6952844 100.939987,41.2941255 C101.589524,42.2675503 103.634453,42.3833755 104.6421,42.34641 L104.6421,43.5761289 C102.933052,43.4750899 100.275632,43.3494072 98.289976,43.3494072 C95.4053413,43.3494072 93.5258832,43.4356601 91.9724284,43.6007726 L91.9724284,42.4745571 L91.9724284,42.4745571 Z M63.0519897,21.2489676 C64.2349863,21.3401492 66.0156555,21.2218596 67.7568092,20.9212069 C69.2238237,20.6673771 69.7572836,20.4603703 70.8538399,19.9083522 L71.3132081,20.1818969 L71.3132081,22.0277075 C72.4887956,21.1627148 74.8498493,19.792527 78.0654267,19.792527 C82.2516046,19.792527 84.9979349,21.7467697 85.7734275,25.3003863 C85.9932327,26.1850939 86.0796729,28.3069135 86.0796729,29.452844 L86.0796729,36.2298521 C86.0796729,40.0644066 86.2303259,41.1339417 86.9490149,41.8165712 C87.3170034,42.1394032 88.171527,42.4893433 89.2063403,42.4893433 L89.2063403,43.5761289 C87.7096891,43.5046623 85.0497991,43.3494072 83.4494195,43.3494072 C81.3155802,43.3494072 78.9150109,43.4529106 77.6233465,43.6007726 L77.6233465,42.5312375 C78.7767065,42.4104835 79.5645476,42.0753297 79.9671122,41.6859598 C80.6413462,41.0107233 80.7574231,39.6701079 80.856212,36.786799 C80.8833789,35.9242707 80.9080761,34.1055681 80.9080761,32.7698814 C80.9080761,31.0398961 80.9080761,29.2335154 80.7080287,27.4641002 C80.3622677,24.4575729 78.7816459,23.0602771 75.7735251,23.0602771 C73.6742619,23.0602771 72.387537,23.5383642 71.4095273,24.0337019 L71.4095273,36.2298521 C71.4095273,40.0644066 71.5601803,41.1339417 72.2961573,41.8165712 C72.6493275,42.1394032 73.5606547,42.4967364 74.5411341,42.4893433 L74.5411341,43.5761289 C72.6122816,43.4775543 70.303092,43.3494072 68.8187894,43.3494072 C65.7242284,43.3494072 64.7486884,43.4134808 62.9532009,43.6007726 L62.9532009,42.494272 C63.9608472,42.4844145 64.9339175,42.1221527 65.4821957,41.506061 C66.188536,40.7051419 66.232991,38.7262555 66.232991,34.7734115 L66.232991,28.1393366 C66.232991,25.2658852 66.1786571,24.0484881 65.7711531,23.4274677 C65.452559,22.9444518 64.654839,22.5600107 63.0519897,22.5772612 L63.0519897,21.2489676 L63.0519897,21.2489676 Z M0.172880505,42.5460237 C0.172880505,40.2098042 0.190168555,38.2333822 0,35.8355535 L1.38057431,35.8355535 C1.39786237,37.3166378 1.81277558,38.4108166 2.45737289,39.1378047 C3.44279176,40.2467697 5.72728414,40.9195418 7.84877491,40.9195418 C12.2794553,40.9195418 14.3441424,39.2462368 14.3441424,35.6482616 C14.3441424,32.5678034 12.4375174,31.2887971 9.79244572,29.5095244 L9.38494168,29.2236579 L6.60403527,27.3704542 C2.72904225,24.8149061 0.745855891,22.7645531 0.745855891,18.6687758 C0.745855891,16.6677101 1.516409,10.1297456 11.2643997,10.1297456 C13.7267121,10.1297456 16.9595775,10.3909684 18.9106575,10.7532303 C18.8908997,11.0637405 18.8587933,12.559611 18.8587933,13.8189024 C18.8587933,15.2778074 18.8587933,15.7608232 18.9131272,17.547489 L17.7326003,17.547489 C17.6955545,15.9752231 17.2633532,14.9623685 16.5792404,14.2822033 C15.6358068,13.3506727 13.5612407,12.9144798 11.368128,12.9144798 C6.20147067,12.9144798 5.59144946,15.5587452 5.59144946,17.547489 C5.59144946,20.2878647 6.99672099,21.2095378 10.0567059,23.2377115 L13.5958168,25.5616092 C16.6014679,27.5651392 19.4317687,29.452844 19.4317687,34.4259358 C19.4317687,42.8491408 11.5681755,43.751099 8.18959647,43.751099 C5.12220238,43.751099 2.66235977,43.3740509 0.172880505,42.5460237 L0.172880505,42.5460237 L0.172880505,42.5460237 Z M52.3062315,31.5968429 C49.2141402,32.5259092 48.15216,33.036033 47.2037869,33.5313707 C45.8479098,34.1942853 45.1687364,35.5620088 45.1687364,37.1761689 C45.1687364,38.4280671 45.6182257,40.5400293 48.6386951,40.5400293 C49.6364626,40.5400293 51.068901,40.3502731 52.3062315,39.4655655 L52.3062315,31.5968429 L52.3062315,31.5968429 Z M46.7370095,43.8003863 C40.4169922,43.8003863 39.9353966,39.0367657 39.9353966,37.5606101 C39.9353966,35.8355535 40.3848859,32.7895964 44.4080622,31.3183695 C48.559664,29.7978553 49.4487637,29.6228853 52.3062315,28.7283202 L52.3062315,27.9791528 C52.3062315,26.6040362 52.3062315,26.2713467 52.027153,25.4063541 C51.4838143,23.7823365 49.9007228,22.7448382 47.7644137,22.7448382 C45.6256349,22.7448382 43.8573143,23.920341 43.062064,25.6281471 L41.8963554,24.9430532 C42.6397416,22.3160384 45.2848133,19.7038098 49.8513283,19.7038098 C53.1014818,19.7038098 55.2254423,20.6205541 56.5171067,22.6043693 C57.507465,24.1741708 57.5939052,26.3575996 57.5939052,28.6272812 C57.5939052,30.6308112 57.5346319,32.8512055 57.4975861,34.6501932 C57.46301,35.8897695 57.4333733,36.9543759 57.4333733,37.6148262 C57.4333733,39.2462368 57.6951638,40.5153856 59.0633895,40.5153856 C59.626486,40.5153856 59.7376235,40.3650593 60.2216889,39.9756894 L60.9675448,40.840682 C59.7376235,42.4425203 58.3866858,43.7609564 56.1120723,43.7609564 C54.2671904,43.7609564 52.9854049,42.8787132 52.5581431,41.405022 C51.5233298,42.4745571 49.6636295,43.8003863 46.7370095,43.8003863 L46.7370095,43.8003863 L46.7370095,43.8003863 Z" id="Fill-3" fill="#8C1414"></path>
                </g>
            </g>
        </g>
    </g>
</svg>