<?xml version="1.0" encoding="UTF-8"?>
<svg width="313px" height="243px" viewBox="0 0 313 243" version="1.1" xmlns="http://www.w3.org/2000/svg" xmlns:xlink="http://www.w3.org/1999/xlink">
    <!-- Generator: Sketch 52.2 (67145) - http://www.bohemiancoding.com/sketch -->
    <title>toolbox</title>
    <desc>Created with Sketch.</desc>
    <g id="toolbox" stroke="none" stroke-width="1" fill="none" fill-rule="evenodd">
        <g fill-rule="nonzero">
            <polygon id="Path-4" fill="#E98300" points="0 126 1.05184838e-14 242.468053 312.073186 242.468053 312.073186 126"></polygon>
            <polygon id="Path-4" fill="#CA7201" points="-3.69237089e-15 242.468053 312.073186 242.468053 312.073186 126"></polygon>
            <rect id="Rectangle" fill="#CA7201" x="0" y="60" width="312" height="66"></rect>
            <rect id="Rectangle" fill="#FF9205" x="0" y="30" width="312" height="30"></rect>
            <g id="Group" transform="translate(116.000000, 0.000000)">
                <rect id="Rectangle" fill="#544948" x="12" y="0" width="58" height="16"></rect>
                <polygon id="Rectangle" fill="#7C6D6C" points="12 0 12 30 0 30 0 11.8772245"></polygon>
                <polygon id="Rectangle" fill="#7C6D6C" points="70 0 82 11.8772245 82 30 70 30"></polygon>
            </g>
            <g id="Group-2" transform="translate(61.000000, 26.000000)">
                <polygon id="Polygon" fill="#F4F4F4" points="25.9639352 39.960208 44.041941 39.960208 44.041941 0.0540248028 67.6832516 20.1792725 54.8173944 62.9457172 13.1826056 62.9457172 0.316748381 20.1792725 25.9639352 0.0540248028"></polygon>
                <polygon id="Polygon" fill="#DAD7CB" points="34.685766 39.960208 44.041941 39.960208 44.041941 0.0540248028 67.6832516 20.1792725 54.8173944 62.9457172 34.685766 62.9457172"></polygon>
                <rect id="Rectangle" fill="#3F3C30" x="24.0833333" y="62.5" width="19.8333333" height="37.5"></rect>
            </g>
            <g id="Group-3" transform="translate(210.000000, 48.000000)">
                <rect id="Rectangle" fill="#DAD7CB" x="0" y="0" width="20" height="78"></rect>
                <path d="M-1.33226763e-14,-1.42108547e-14 L20,-1.42108547e-14 C20,23.2364608 16.6666667,34.8546912 10,34.8546912 C3.33333333,34.8546912 -1.33226763e-14,23.2364608 -1.33226763e-14,-1.42108547e-14 Z" id="Rectangle" fill="#F4F4F4"></path>
            </g>
            <circle id="Oval" fill="#CA7201" cx="157" cy="145" r="9"></circle>
        </g>
    </g>
</svg>